<svg width="89" height="49" viewBox="0 0 89 49" fill="none" xmlns="http://www.w3.org/2000/svg">
<path d="M5.23655 23.0766C6.47251 23.0766 7.38321 22.9138 7.96866 22.5883C8.5758 22.2629 8.87937 21.7421 8.87937 21.026C8.87937 20.2883 8.58664 19.7024 8.00119 19.2684C7.41574 18.8345 6.45082 18.3462 5.10645 17.8038C4.45595 17.5434 3.82713 17.283 3.21999 17.0226C2.63454 16.7405 2.12498 16.4151 1.69131 16.0462C1.25764 15.6773 0.910704 15.2325 0.650503 14.7117C0.390302 14.1909 0.260201 13.5508 0.260201 12.7914C0.260201 11.2942 0.813129 10.1116 1.91898 9.24365C3.02484 8.354 4.53184 7.90918 6.43998 7.90918C6.91702 7.90918 7.39405 7.94172 7.87109 8.00682C8.34812 8.05022 8.79263 8.11531 9.20462 8.20211C9.6166 8.2672 9.97438 8.34315 10.2779 8.42994C10.6032 8.51674 10.8526 8.59268 11.026 8.65778L10.4731 11.2616C10.1478 11.088 9.63829 10.9144 8.94442 10.7409C8.25055 10.5456 7.41574 10.4479 6.43998 10.4479C5.59433 10.4479 4.85709 10.6215 4.22827 10.9687C3.59945 11.2942 3.28504 11.8149 3.28504 12.531C3.28504 12.8999 3.35009 13.2254 3.48019 13.5074C3.63198 13.7895 3.84881 14.0499 4.13069 14.2886C4.43426 14.5056 4.80288 14.7117 5.23655 14.907C5.67022 15.1023 6.19062 15.3084 6.79776 15.5254C7.60004 15.8292 8.3156 16.133 8.94442 16.4368C9.57324 16.7188 10.1045 17.0552 10.5381 17.4458C10.9935 17.8363 11.3404 18.3137 11.579 18.8779C11.8175 19.4203 11.9367 20.093 11.9367 20.8958C11.9367 22.4582 11.3513 23.6407 10.1804 24.4436C9.03115 25.2464 7.38321 25.6479 5.23655 25.6479C3.74039 25.6479 2.56949 25.5177 1.72383 25.2573C0.878179 25.0186 0.303568 24.8342 0 24.704L0.552928 22.1001C0.899863 22.2303 1.45279 22.4256 2.21171 22.686C2.97063 22.9464 3.97891 23.0766 5.23655 23.0766Z" fill="#2E2E2E"/>
<path d="M23.1673 25.6479C21.8013 25.6479 20.5978 25.4309 19.557 24.9969C18.5379 24.5629 17.6706 23.9554 16.955 23.1742C16.2611 22.3931 15.7407 21.4709 15.3938 20.4076C15.0469 19.3227 14.8734 18.1293 14.8734 16.8273C14.8734 15.5254 15.0577 14.332 15.4263 13.2471C15.8166 12.1621 16.3587 11.2291 17.0526 10.4479C17.7465 9.64507 18.5921 9.02666 19.5895 8.59268C20.6087 8.13701 21.7362 7.90918 22.9722 7.90918C23.7311 7.90918 24.49 7.97427 25.2489 8.10446C26.0078 8.23466 26.7342 8.44079 27.4281 8.72288L26.7451 11.2942C26.2897 11.0772 25.7585 10.9036 25.1513 10.7734C24.5659 10.6432 23.9371 10.5781 23.2649 10.5781C21.5736 10.5781 20.2726 11.1097 19.3619 12.173C18.4728 13.2362 18.0283 14.7877 18.0283 16.8273C18.0283 17.7387 18.1259 18.5741 18.3211 19.3335C18.5379 20.093 18.8631 20.744 19.2968 21.2864C19.7522 21.8289 20.3268 22.252 21.0207 22.5558C21.7145 22.8379 22.5602 22.9789 23.5576 22.9789C24.3599 22.9789 25.0863 22.903 25.7368 22.7511C26.3873 22.5992 26.8969 22.4365 27.2655 22.2629L27.6883 24.8016C27.5148 24.9101 27.2655 25.0186 26.9402 25.1271C26.615 25.2139 26.2464 25.2898 25.8344 25.3549C25.4224 25.4417 24.9779 25.5068 24.5008 25.5502C24.0455 25.6153 23.601 25.6479 23.1673 25.6479Z" fill="#2E2E2E"/>
<path d="M30.9357 25.2573V0.52077L33.9606 0V8.65778C34.5243 8.44079 35.1206 8.27806 35.7495 8.16956C36.4 8.03937 37.0396 7.97427 37.6684 7.97427C39.0128 7.97427 40.1295 8.16956 41.0185 8.56014C41.9076 8.92901 42.6123 9.46063 43.1327 10.155C43.6748 10.8277 44.0542 11.6414 44.2711 12.5961C44.4879 13.5508 44.5963 14.6032 44.5963 15.7533V25.2573H41.5715V16.4042C41.5715 15.3627 41.4956 14.473 41.3438 13.7353C41.2137 12.9975 40.986 12.4008 40.6608 11.9451C40.3355 11.4895 39.9018 11.164 39.3598 10.9687C38.8177 10.7517 38.1455 10.6432 37.3432 10.6432C37.0179 10.6432 36.6819 10.6649 36.3349 10.7083C35.988 10.7517 35.6519 10.806 35.3266 10.871C35.0231 10.9144 34.7412 10.9687 34.481 11.0338C34.2425 11.0989 34.069 11.1531 33.9606 11.1965V25.2573H30.9357Z" fill="#2E2E2E"/>
<path d="M55.2414 23.0766C55.957 23.0766 56.5858 23.0657 57.1279 23.044C57.6917 23.0006 58.1579 22.9355 58.5265 22.8487V17.8038C58.3096 17.6953 57.9519 17.6085 57.4531 17.5434C56.9761 17.4566 56.3907 17.4132 55.6968 17.4132C55.2414 17.4132 54.7536 17.4458 54.2332 17.5108C53.7344 17.5759 53.2682 17.717 52.8346 17.934C52.4226 18.1293 52.0756 18.4113 51.7938 18.7802C51.5119 19.1274 51.3709 19.5939 51.3709 20.1798C51.3709 21.2647 51.7179 22.0242 52.4117 22.4582C53.1056 22.8704 54.0488 23.0766 55.2414 23.0766ZM54.9812 7.90918C56.1955 7.90918 57.2146 8.07192 58.0386 8.3974C58.8843 8.70118 59.5564 9.146 60.0552 9.73187C60.5756 10.296 60.9442 10.9795 61.161 11.7824C61.3778 12.5635 61.4863 13.4315 61.4863 14.3862V24.9644C61.2261 25.0077 60.8574 25.0728 60.3804 25.1596C59.9251 25.2247 59.4047 25.2898 58.8192 25.3549C58.2337 25.42 57.5941 25.4743 56.9002 25.5177C56.228 25.5828 55.5558 25.6153 54.8837 25.6153C53.9296 25.6153 53.0514 25.5177 52.2491 25.3224C51.4468 25.1271 50.753 24.8233 50.1675 24.411C49.5821 23.9771 49.1267 23.4129 48.8015 22.7185C48.4762 22.0242 48.3136 21.1888 48.3136 20.2123C48.3136 19.2793 48.4979 18.4764 48.8665 17.8038C49.2568 17.1311 49.7772 16.5887 50.4277 16.1764C51.0782 15.7641 51.8371 15.4603 52.7045 15.265C53.5718 15.0697 54.4825 14.9721 55.4366 14.9721C55.7402 14.9721 56.0546 14.9938 56.3798 15.0372C56.7051 15.0589 57.0086 15.1023 57.2905 15.1674C57.5941 15.2108 57.8543 15.2542 58.0711 15.2976C58.288 15.341 58.4397 15.3735 58.5265 15.3952V14.549C58.5265 14.0499 58.4723 13.5617 58.3638 13.0843C58.2554 12.5852 58.0603 12.1513 57.7784 11.7824C57.4965 11.3918 57.1062 11.088 56.6075 10.871C56.1305 10.6324 55.5016 10.513 54.721 10.513C53.7236 10.513 52.8454 10.589 52.0865 10.7409C51.3493 10.871 50.7963 11.0121 50.4277 11.164L50.0699 8.65778C50.4602 8.48419 51.1107 8.32145 52.0214 8.16956C52.9321 7.99597 53.9187 7.90918 54.9812 7.90918Z" fill="#2E2E2E"/>
<path d="M72.2346 23.0766C72.9501 23.0766 73.5789 23.0657 74.121 23.044C74.6848 23.0006 75.151 22.9355 75.5196 22.8487V17.8038C75.3028 17.6953 74.945 17.6085 74.4463 17.5434C73.9692 17.4566 73.3838 17.4132 72.6899 17.4132C72.2346 17.4132 71.7467 17.4458 71.2263 17.5108C70.7276 17.5759 70.2614 17.717 69.8277 17.934C69.4157 18.1293 69.0688 18.4113 68.7869 18.7802C68.505 19.1274 68.3641 19.5939 68.3641 20.1798C68.3641 21.2647 68.711 22.0242 69.4049 22.4582C70.0987 22.8704 71.042 23.0766 72.2346 23.0766ZM71.9743 7.90918C73.1886 7.90918 74.2077 8.07192 75.0317 8.3974C75.8774 8.70118 76.5496 9.146 77.0483 9.73187C77.5687 10.296 77.9373 10.9795 78.1541 11.7824C78.371 12.5635 78.4794 13.4315 78.4794 14.3862V24.9644C78.2192 25.0077 77.8506 25.0728 77.3735 25.1596C76.9182 25.2247 76.3978 25.2898 75.8123 25.3549C75.2269 25.42 74.5872 25.4743 73.8933 25.5177C73.2212 25.5828 72.549 25.6153 71.8768 25.6153C70.9227 25.6153 70.0445 25.5177 69.2422 25.3224C68.44 25.1271 67.7461 24.8233 67.1606 24.411C66.5752 23.9771 66.1198 23.4129 65.7946 22.7185C65.4693 22.0242 65.3067 21.1888 65.3067 20.2123C65.3067 19.2793 65.491 18.4764 65.8596 17.8038C66.2499 17.1311 66.7703 16.5887 67.4208 16.1764C68.0713 15.7641 68.8303 15.4603 69.6976 15.265C70.5649 15.0697 71.4756 14.9721 72.4297 14.9721C72.7333 14.9721 73.0477 14.9938 73.3729 15.0372C73.6982 15.0589 74.0018 15.1023 74.2836 15.1674C74.5872 15.2108 74.8474 15.2542 75.0642 15.2976C75.2811 15.341 75.4329 15.3735 75.5196 15.3952V14.549C75.5196 14.0499 75.4654 13.5617 75.357 13.0843C75.2486 12.5852 75.0534 12.1513 74.7715 11.7824C74.4896 11.3918 74.0993 11.088 73.6006 10.871C73.1236 10.6324 72.4948 10.513 71.7141 10.513C70.7167 10.513 69.8385 10.589 69.0796 10.7409C68.3424 10.871 67.7895 11.0121 67.4208 11.164L67.0631 8.65778C67.4534 8.48419 68.1039 8.32145 69.0146 8.16956C69.9253 7.99597 70.9119 7.90918 71.9743 7.90918Z" fill="#2E2E2E"/>
<path d="M88.5772 25.5828C86.7124 25.5394 85.3897 25.1379 84.6091 24.3785C83.8285 23.619 83.4382 22.4365 83.4382 20.8307V0.52077L86.463 0V20.3425C86.463 20.8416 86.5064 21.2539 86.5931 21.5794C86.6799 21.9048 86.8208 22.1652 87.016 22.3605C87.2111 22.5558 87.4713 22.7077 87.7966 22.8162C88.1218 22.903 88.523 22.9789 89 23.044L88.5772 25.5828Z" fill="#2E2E2E"/>
<path d="M30.3611 44.4888C30.3611 44.7883 30.2636 45.0422 30.0684 45.2505C29.8863 45.4588 29.6261 45.5629 29.2878 45.5629C28.9496 45.5629 28.6828 45.4588 28.4877 45.2505C28.3056 45.0422 28.2145 44.7883 28.2145 44.4888C28.2145 44.1894 28.3056 43.9355 28.4877 43.7272C28.6828 43.5189 28.9496 43.4147 29.2878 43.4147C29.6261 43.4147 29.8863 43.5189 30.0684 43.7272C30.2636 43.9355 30.3611 44.1894 30.3611 44.4888Z" fill="#2E2E2E"/>
<path d="M41.389 45.0161C41.0117 45.1463 40.5303 45.27 39.9449 45.3872C39.3594 45.5043 38.6179 45.5629 37.7202 45.5629C36.9786 45.5629 36.3021 45.4458 35.6906 45.2114C35.0921 44.964 34.5717 44.6125 34.1294 44.1568C33.7001 43.7012 33.3618 43.1479 33.1146 42.4969C32.8804 41.8459 32.7633 41.1104 32.7633 40.2901C32.7633 39.522 32.8609 38.819 33.0561 38.181C33.2642 37.5301 33.5635 36.9702 33.9538 36.5015C34.3441 36.0329 34.8189 35.6683 35.3784 35.4079C35.9508 35.1476 36.6013 35.0174 37.3299 35.0174C37.9934 35.0174 38.5658 35.115 39.0472 35.3103C39.5416 35.4926 39.8993 35.6683 40.1205 35.8376V30.4086L41.389 30.1742V45.0161ZM40.1205 37.0679C40.0034 36.9767 39.8538 36.8791 39.6717 36.775C39.5025 36.6708 39.3009 36.5732 39.0667 36.482C38.8325 36.3909 38.5788 36.3193 38.3056 36.2672C38.0324 36.2021 37.7462 36.1696 37.447 36.1696C36.8225 36.1696 36.2956 36.2802 35.8662 36.5015C35.4499 36.7229 35.1116 37.0223 34.8514 37.3999C34.5912 37.7644 34.4026 38.2006 34.2855 38.7083C34.1684 39.203 34.1099 39.7303 34.1099 40.2901C34.1099 41.6181 34.4416 42.6401 35.1051 43.3562C35.7687 44.0592 36.6468 44.4107 37.7397 44.4107C38.3642 44.4107 38.865 44.3847 39.2423 44.3326C39.6326 44.2675 39.9254 44.2024 40.1205 44.1373V37.0679Z" fill="#2E2E2E"/>
<path d="M44.1408 40.2706C44.1408 39.3853 44.2644 38.6172 44.5116 37.9662C44.7718 37.3022 45.1035 36.7489 45.5068 36.3063C45.9232 35.8636 46.3915 35.5381 46.9119 35.3298C47.4453 35.1085 47.9918 34.9978 48.5512 34.9978C49.7872 34.9978 50.7694 35.4014 51.498 36.2086C52.2395 37.0158 52.6103 38.2591 52.6103 39.9386C52.6103 40.0428 52.6038 40.1469 52.5908 40.2511C52.5908 40.3552 52.5843 40.4529 52.5713 40.544H45.4873C45.5264 41.7808 45.8321 42.7312 46.4045 43.3952C46.977 44.0592 47.8877 44.3912 49.1366 44.3912C49.8262 44.3912 50.3726 44.3261 50.7759 44.1959C51.1792 44.0657 51.472 43.955 51.6541 43.8639L51.8883 44.9575C51.7061 45.0617 51.3614 45.1854 50.854 45.3286C50.3596 45.4718 49.7741 45.5434 49.0976 45.5434C48.2129 45.5434 47.4583 45.4132 46.8339 45.1528C46.2094 44.8924 45.6955 44.5279 45.2922 44.0592C44.8889 43.5905 44.5961 43.0372 44.414 42.3993C44.2319 41.7483 44.1408 41.0387 44.1408 40.2706ZM51.3028 39.4699C51.2768 38.4154 51.0296 37.5952 50.5612 37.0093C50.0929 36.4234 49.4294 36.1305 48.5707 36.1305C48.1154 36.1305 47.7055 36.2216 47.3413 36.4039C46.99 36.5862 46.6777 36.8335 46.4045 37.146C46.1443 37.4454 45.9362 37.797 45.78 38.2006C45.6369 38.6041 45.5524 39.0273 45.5264 39.4699H51.3028Z" fill="#2E2E2E"/>
<path d="M57.5057 44.4303C58.2343 44.4303 58.8328 44.3131 59.3011 44.0787C59.7825 43.8314 60.0232 43.4213 60.0232 42.8484C60.0232 42.575 59.9776 42.3407 59.8866 42.1454C59.8085 41.9501 59.6719 41.7743 59.4767 41.6181C59.2816 41.4619 59.0214 41.3121 58.6961 41.1689C58.3839 41.0257 57.9936 40.8565 57.5252 40.6612C57.1479 40.505 56.7902 40.3487 56.4519 40.1925C56.1136 40.0232 55.8144 39.8345 55.5542 39.6262C55.294 39.4048 55.0859 39.1445 54.9297 38.845C54.7736 38.5456 54.6956 38.181 54.6956 37.7514C54.6956 36.9312 55.0013 36.2672 55.6128 35.7595C56.2372 35.2517 57.0894 34.9978 58.1692 34.9978C58.8588 34.9978 59.4247 35.0564 59.8671 35.1736C60.3224 35.2908 60.6411 35.3949 60.8233 35.486L60.5306 36.6187C60.3744 36.5406 60.1077 36.4365 59.7304 36.3063C59.3662 36.1761 58.8262 36.111 58.1107 36.111C57.8245 36.111 57.5513 36.1435 57.2911 36.2086C57.0439 36.2607 56.8227 36.3518 56.6275 36.482C56.4324 36.5992 56.2763 36.7554 56.1592 36.9507C56.0421 37.133 55.9835 37.3608 55.9835 37.6342C55.9835 37.9076 56.0356 38.142 56.1397 38.3373C56.2437 38.5326 56.3934 38.7083 56.5885 38.8645C56.7967 39.0077 57.0439 39.1445 57.3301 39.2746C57.6293 39.4048 57.9676 39.548 58.3449 39.7043C58.7352 39.8605 59.106 40.0232 59.4572 40.1925C59.8215 40.3487 60.1403 40.544 60.4135 40.7784C60.6867 40.9997 60.9079 41.2731 61.077 41.5986C61.2461 41.911 61.3307 42.3081 61.3307 42.7898C61.3307 43.7012 60.9859 44.3912 60.2964 44.8599C59.6199 45.3286 58.6896 45.5629 57.5057 45.5629C56.621 45.5629 55.9445 45.4848 55.4762 45.3286C55.0078 45.1854 54.6956 45.0747 54.5394 44.9966L54.8712 43.8444C54.9102 43.8704 54.9948 43.916 55.1249 43.9811C55.255 44.0332 55.4306 44.0983 55.6518 44.1764C55.873 44.2415 56.1332 44.3001 56.4324 44.3521C56.7446 44.4042 57.1024 44.4303 57.5057 44.4303Z" fill="#2E2E2E"/>
<path d="M65.0529 45.3286H63.7844V35.2322H65.0529V45.3286ZM65.3456 32.1857C65.3456 32.4851 65.2545 32.726 65.0724 32.9082C64.8903 33.0775 64.6691 33.1621 64.4089 33.1621C64.1487 33.1621 63.9275 33.0775 63.7454 32.9082C63.5632 32.726 63.4722 32.4851 63.4722 32.1857C63.4722 31.8862 63.5632 31.6519 63.7454 31.4826C63.9275 31.3004 64.1487 31.2092 64.4089 31.2092C64.6691 31.2092 64.8903 31.3004 65.0724 31.4826C65.2545 31.6519 65.3456 31.8862 65.3456 32.1857Z" fill="#2E2E2E"/>
<path d="M74.992 44.1568C74.9139 44.2219 74.7969 44.3001 74.6407 44.3912C74.4846 44.4693 74.2895 44.5539 74.0553 44.6451C73.8341 44.7362 73.5739 44.8143 73.2747 44.8794C72.9885 44.9315 72.6632 44.9575 72.2989 44.9575C71.7135 44.9575 71.1475 44.8664 70.6011 44.6841C70.0547 44.5019 69.5733 44.2154 69.157 43.8249C68.7537 43.4343 68.4284 42.933 68.1812 42.3211C67.9341 41.6962 67.8105 40.9411 67.8105 40.0558C67.8105 39.3397 67.921 38.6758 68.1422 38.0639C68.3634 37.452 68.6756 36.9247 69.0789 36.482C69.4953 36.0263 69.9961 35.6748 70.5816 35.4275C71.1801 35.1671 71.8501 35.0369 72.5917 35.0369C73.5284 35.0369 74.2765 35.102 74.8359 35.2322C75.4083 35.3493 75.8767 35.4665 76.241 35.5837V44.8013C76.241 46.3115 75.8507 47.3856 75.0701 48.0236C74.2895 48.6745 73.1121 49 71.5378 49C70.8873 49 70.2954 48.9479 69.762 48.8438C69.2416 48.7526 68.7927 48.642 68.4154 48.5118L68.6691 47.3596C68.9814 47.5028 69.4042 47.6265 69.9376 47.7306C70.484 47.8348 71.0304 47.8869 71.5769 47.8869C72.7738 47.8869 73.639 47.6525 74.1724 47.1838C74.7188 46.7281 74.992 45.9405 74.992 44.8208V44.1568ZM74.9725 36.4625C74.7513 36.3974 74.4651 36.3388 74.1138 36.2867C73.7626 36.2216 73.2617 36.1891 72.6112 36.1891C72.0647 36.1891 71.5769 36.2867 71.1475 36.482C70.7312 36.6643 70.3734 36.9312 70.0742 37.2827C69.775 37.6212 69.5473 38.0313 69.3912 38.513C69.2351 38.9817 69.157 39.5025 69.157 40.0753C69.157 40.7393 69.2481 41.3121 69.4302 41.7939C69.6124 42.2626 69.8465 42.6466 70.1328 42.9461C70.432 43.2455 70.7702 43.4668 71.1475 43.61C71.5248 43.7402 71.9086 43.8053 72.2989 43.8053C72.8714 43.8053 73.3918 43.7207 73.8601 43.5515C74.3415 43.3822 74.7123 43.1869 74.9725 42.9656V36.4625Z" fill="#2E2E2E"/>
<path d="M79.6023 35.5837C79.9796 35.4795 80.487 35.3624 81.1245 35.2322C81.762 35.102 82.5426 35.0369 83.4663 35.0369C84.2339 35.0369 84.8714 35.1475 85.3788 35.3689C85.8992 35.5902 86.309 35.9092 86.6082 36.3258C86.9205 36.7294 87.1416 37.2176 87.2717 37.7905C87.4018 38.3633 87.4669 38.9947 87.4669 39.6847V45.3286H86.1984V40.0949C86.1984 39.3788 86.1464 38.7734 86.0423 38.2787C85.9512 37.7839 85.7886 37.3803 85.5544 37.0679C85.3332 36.7554 85.034 36.5341 84.6567 36.4039C84.2924 36.2607 83.8306 36.1891 83.2711 36.1891C82.6727 36.1891 82.1523 36.2216 81.7099 36.2867C81.2806 36.3518 81.0009 36.4104 80.8708 36.4625V45.3286H79.6023V35.5837Z" fill="#2E2E2E"/>
</svg>
